<mxfile host="app.diagrams.net" agent="Mozilla/5.0 (Macintosh; Intel Mac OS X 10_15_7) AppleWebKit/537.36 (KHTML, like Gecko) Chrome/141.0.0.0 Safari/537.36" version="28.2.8">
  <diagram name="Page-1" id="o-g97GIbj9h0VzkoVPXP">
    <mxGraphModel dx="1325" dy="2323" grid="0" gridSize="10" guides="1" tooltips="1" connect="1" arrows="1" fold="1" page="0" pageScale="1" pageWidth="850" pageHeight="1100" math="0" shadow="0">
      <root>
        <mxCell id="0" />
        <mxCell id="1" parent="0" />
        <mxCell id="bupbh7ChWR4x3SR12RDG-33" style="edgeStyle=none;curved=1;rounded=0;orthogonalLoop=1;jettySize=auto;html=1;exitX=0;exitY=1;exitDx=0;exitDy=0;entryX=0.5;entryY=0;entryDx=0;entryDy=0;fontSize=12;startSize=8;endSize=8;" edge="1" parent="1" source="bupbh7ChWR4x3SR12RDG-1" target="bupbh7ChWR4x3SR12RDG-10">
          <mxGeometry relative="1" as="geometry" />
        </mxCell>
        <mxCell id="bupbh7ChWR4x3SR12RDG-34" style="edgeStyle=none;curved=1;rounded=0;orthogonalLoop=1;jettySize=auto;html=1;exitX=1;exitY=1;exitDx=0;exitDy=0;entryX=0;entryY=0;entryDx=0;entryDy=0;fontSize=12;startSize=8;endSize=8;" edge="1" parent="1" source="bupbh7ChWR4x3SR12RDG-1" target="bupbh7ChWR4x3SR12RDG-12">
          <mxGeometry relative="1" as="geometry" />
        </mxCell>
        <mxCell id="bupbh7ChWR4x3SR12RDG-1" value="&lt;font style=&quot;font-size: 18px;&quot;&gt;10&lt;/font&gt;" style="ellipse;whiteSpace=wrap;html=1;" vertex="1" parent="1">
          <mxGeometry x="480" y="-167" width="84" height="84" as="geometry" />
        </mxCell>
        <mxCell id="bupbh7ChWR4x3SR12RDG-15" style="edgeStyle=none;curved=1;rounded=0;orthogonalLoop=1;jettySize=auto;html=1;exitX=1;exitY=1;exitDx=0;exitDy=0;fontSize=12;startSize=8;endSize=8;" edge="1" parent="1" source="bupbh7ChWR4x3SR12RDG-4" target="bupbh7ChWR4x3SR12RDG-5">
          <mxGeometry relative="1" as="geometry" />
        </mxCell>
        <mxCell id="bupbh7ChWR4x3SR12RDG-4" value="&lt;font style=&quot;font-size: 18px;&quot;&gt;9&lt;/font&gt;" style="ellipse;whiteSpace=wrap;html=1;" vertex="1" parent="1">
          <mxGeometry x="108" y="-151" width="84" height="84" as="geometry" />
        </mxCell>
        <mxCell id="bupbh7ChWR4x3SR12RDG-5" value="&lt;font style=&quot;font-size: 18px;&quot;&gt;5&lt;/font&gt;" style="ellipse;whiteSpace=wrap;html=1;" vertex="1" parent="1">
          <mxGeometry x="232" y="-48" width="84" height="84" as="geometry" />
        </mxCell>
        <mxCell id="bupbh7ChWR4x3SR12RDG-21" style="edgeStyle=none;curved=1;rounded=0;orthogonalLoop=1;jettySize=auto;html=1;exitX=1;exitY=1;exitDx=0;exitDy=0;fontSize=12;startSize=8;endSize=8;entryX=0.321;entryY=0.048;entryDx=0;entryDy=0;entryPerimeter=0;" edge="1" parent="1" source="bupbh7ChWR4x3SR12RDG-6" target="bupbh7ChWR4x3SR12RDG-8">
          <mxGeometry relative="1" as="geometry">
            <mxPoint x="100" y="268" as="targetPoint" />
          </mxGeometry>
        </mxCell>
        <mxCell id="bupbh7ChWR4x3SR12RDG-6" value="&lt;font style=&quot;font-size: 18px;&quot;&gt;6&lt;/font&gt;" style="ellipse;whiteSpace=wrap;html=1;" vertex="1" parent="1">
          <mxGeometry x="-2" y="-45" width="84" height="84" as="geometry" />
        </mxCell>
        <mxCell id="bupbh7ChWR4x3SR12RDG-7" value="&lt;font style=&quot;font-size: 18px;&quot;&gt;2&lt;/font&gt;" style="ellipse;whiteSpace=wrap;html=1;" vertex="1" parent="1">
          <mxGeometry x="-73" y="88" width="84" height="84" as="geometry" />
        </mxCell>
        <mxCell id="bupbh7ChWR4x3SR12RDG-8" value="&lt;font style=&quot;font-size: 18px;&quot;&gt;1&lt;/font&gt;" style="ellipse;whiteSpace=wrap;html=1;" vertex="1" parent="1">
          <mxGeometry x="71" y="83" width="84" height="84" as="geometry" />
        </mxCell>
        <mxCell id="bupbh7ChWR4x3SR12RDG-9" value="&lt;font style=&quot;font-size: 18px;&quot;&gt;3&lt;/font&gt;" style="ellipse;whiteSpace=wrap;html=1;" vertex="1" parent="1">
          <mxGeometry x="215" y="83" width="84" height="84" as="geometry" />
        </mxCell>
        <mxCell id="bupbh7ChWR4x3SR12RDG-10" value="&lt;font style=&quot;font-size: 18px;&quot;&gt;8&lt;/font&gt;" style="ellipse;whiteSpace=wrap;html=1;" vertex="1" parent="1">
          <mxGeometry x="396" y="-48" width="84" height="84" as="geometry" />
        </mxCell>
        <mxCell id="bupbh7ChWR4x3SR12RDG-11" value="&lt;font style=&quot;font-size: 18px;&quot;&gt;7&lt;/font&gt;" style="ellipse;whiteSpace=wrap;html=1;" vertex="1" parent="1">
          <mxGeometry x="321" y="83" width="84" height="84" as="geometry" />
        </mxCell>
        <mxCell id="bupbh7ChWR4x3SR12RDG-12" value="&lt;font style=&quot;font-size: 18px;&quot;&gt;4&lt;/font&gt;" style="ellipse;whiteSpace=wrap;html=1;" vertex="1" parent="1">
          <mxGeometry x="592" y="-61" width="84" height="84" as="geometry" />
        </mxCell>
        <mxCell id="bupbh7ChWR4x3SR12RDG-14" style="edgeStyle=none;curved=1;rounded=0;orthogonalLoop=1;jettySize=auto;html=1;exitX=0;exitY=1;exitDx=0;exitDy=0;entryX=0.766;entryY=0.083;entryDx=0;entryDy=0;entryPerimeter=0;fontSize=12;startSize=8;endSize=8;" edge="1" parent="1" source="bupbh7ChWR4x3SR12RDG-4" target="bupbh7ChWR4x3SR12RDG-6">
          <mxGeometry relative="1" as="geometry" />
        </mxCell>
        <mxCell id="bupbh7ChWR4x3SR12RDG-19" style="edgeStyle=none;curved=1;rounded=0;orthogonalLoop=1;jettySize=auto;html=1;exitX=0;exitY=1;exitDx=0;exitDy=0;entryX=0.71;entryY=0.016;entryDx=0;entryDy=0;entryPerimeter=0;fontSize=12;startSize=8;endSize=8;" edge="1" parent="1" source="bupbh7ChWR4x3SR12RDG-6" target="bupbh7ChWR4x3SR12RDG-7">
          <mxGeometry relative="1" as="geometry" />
        </mxCell>
        <mxCell id="bupbh7ChWR4x3SR12RDG-22" style="edgeStyle=none;curved=1;rounded=0;orthogonalLoop=1;jettySize=auto;html=1;exitX=0.5;exitY=1;exitDx=0;exitDy=0;entryX=0.643;entryY=0;entryDx=0;entryDy=0;entryPerimeter=0;fontSize=12;startSize=8;endSize=8;" edge="1" parent="1" source="bupbh7ChWR4x3SR12RDG-5" target="bupbh7ChWR4x3SR12RDG-9">
          <mxGeometry relative="1" as="geometry" />
        </mxCell>
        <mxCell id="bupbh7ChWR4x3SR12RDG-24" style="edgeStyle=none;curved=1;rounded=0;orthogonalLoop=1;jettySize=auto;html=1;exitX=0;exitY=1;exitDx=0;exitDy=0;entryX=0.778;entryY=0.044;entryDx=0;entryDy=0;entryPerimeter=0;fontSize=12;startSize=8;endSize=8;" edge="1" parent="1" source="bupbh7ChWR4x3SR12RDG-10" target="bupbh7ChWR4x3SR12RDG-11">
          <mxGeometry relative="1" as="geometry" />
        </mxCell>
        <mxCell id="bupbh7ChWR4x3SR12RDG-29" style="edgeStyle=none;curved=1;rounded=0;orthogonalLoop=1;jettySize=auto;html=1;exitX=0;exitY=1;exitDx=0;exitDy=0;entryX=0.5;entryY=0;entryDx=0;entryDy=0;fontSize=12;startSize=8;endSize=8;" edge="1" parent="1" source="bupbh7ChWR4x3SR12RDG-26" target="bupbh7ChWR4x3SR12RDG-4">
          <mxGeometry relative="1" as="geometry" />
        </mxCell>
        <mxCell id="bupbh7ChWR4x3SR12RDG-31" style="edgeStyle=none;curved=1;rounded=0;orthogonalLoop=1;jettySize=auto;html=1;exitX=1;exitY=1;exitDx=0;exitDy=0;entryX=0.5;entryY=0;entryDx=0;entryDy=0;fontSize=12;startSize=8;endSize=8;" edge="1" parent="1" source="bupbh7ChWR4x3SR12RDG-26" target="bupbh7ChWR4x3SR12RDG-1">
          <mxGeometry relative="1" as="geometry" />
        </mxCell>
        <mxCell id="bupbh7ChWR4x3SR12RDG-26" value="&lt;font style=&quot;font-size: 18px;&quot;&gt;11&lt;/font&gt;" style="ellipse;whiteSpace=wrap;html=1;" vertex="1" parent="1">
          <mxGeometry x="296" y="-272" width="84" height="84" as="geometry" />
        </mxCell>
      </root>
    </mxGraphModel>
  </diagram>
</mxfile>
